<?xml version="1.0" encoding="utf-8"?>
<!-- Generator: Adobe Illustrator 16.0.0, SVG Export Plug-In . SVG Version: 6.00 Build 0)  -->
<!DOCTYPE svg PUBLIC "-//W3C//DTD SVG 1.1//EN" "http://www.w3.org/Graphics/SVG/1.1/DTD/svg11.dtd">
<svg version="1.1" id="Calque_1" xmlns="http://www.w3.org/2000/svg" xmlns:xlink="http://www.w3.org/1999/xlink" x="0px" y="0px"
	 width="352px" height="342px" viewBox="628.5 510.5 352 342" enable-background="new 628.5 510.5 352 342" xml:space="preserve">
<circle fill="#F15A29" stroke="#FFFFFF" stroke-miterlimit="10" cx="807" cy="678" r="162.319"/>
<g>
	<path fill="none" stroke="#FFFFFF" stroke-width="7.4189" stroke-miterlimit="10" d="M869.289,723.083
		c-0.097,5.464-4.604,9.896-10.063,9.896H752.31c-5.463,0-9.813-4.432-9.717-9.896l1.567-89.679
		c0.094-5.465,4.599-9.896,10.061-9.896h106.918c5.457,0,9.813,4.432,9.716,9.896L869.289,723.083z"/>
	<path fill="none" stroke="#FFFFFF" stroke-width="6.9123" stroke-miterlimit="10" d="M773.179,620.611l0.322-18.525
		c0.078-4.456,3.751-8.067,8.201-8.067l0,0c4.454,0,8.001,3.611,7.922,8.067l-0.321,18.525"/>
	<path fill="none" stroke="#FFFFFF" stroke-width="6.9123" stroke-miterlimit="10" d="M827.31,620.5l0.336-19.172
		c0.082-4.612,3.886-8.352,8.493-8.352l0,0c4.606,0,8.275,3.738,8.196,8.352L844,620.5"/>
	
		<text transform="matrix(0.999 0 -0.0175 0.9998 785.9336 708.0195)" fill="#FFFFFF" font-family="'HelveticaRounded-Bold'" font-size="44.5385">31</text>
	<path fill="none" stroke="#FFFFFF" stroke-width="4.946" stroke-miterlimit="10" d="M853.913,709.876
		c-0.09,5.086-4.279,9.204-9.35,9.204h-76.793c-5.076,0-9.121-4.118-9.032-9.204l0.621-35.638c0.09-5.088,4.277-9.201,9.354-9.201
		h76.792c5.071,0,9.114,4.113,9.028,9.201L853.913,709.876z"/>
	
		<rect x="763.087" y="635.478" fill="#FFFFFF" stroke="#FFFFFF" stroke-width="5.9136" stroke-miterlimit="10" width="89" height="18.751"/>
</g>
</svg>
