<?xml version="1.0" encoding="utf-8"?>
<!-- Generator: Adobe Illustrator 16.0.0, SVG Export Plug-In . SVG Version: 6.00 Build 0)  -->
<!DOCTYPE svg PUBLIC "-//W3C//DTD SVG 1.1//EN" "http://www.w3.org/Graphics/SVG/1.1/DTD/svg11.dtd">
<svg version="1.1" id="Calque_1" xmlns="http://www.w3.org/2000/svg" xmlns:xlink="http://www.w3.org/1999/xlink" x="0px" y="0px"
	 width="1920px" height="1080px" viewBox="0 0 1920 1080" enable-background="new 0 0 1920 1080" xml:space="preserve">
<rect id="_x3C_Tranche_x3E__2_" x="-348" y="-249" fill="none" width="2765" height="1508"/>
<rect id="_x3C_Tranche_x3E__1_" x="-395" y="-11" fill="none" width="395" height="898"/>
<g>
	<g>
		<g>
			<g>
				<defs>
					<rect id="SVGID_1_" x="1.004" y="-168" width="1931.902" height="601.952"/>
				</defs>
				<clipPath id="SVGID_2_">
					<use xlink:href="#SVGID_1_"  overflow="visible"/>
				</clipPath>
				<g transform="matrix(1 0 0 1 0 1.907349e-006)" clip-path="url(#SVGID_2_)">
					
						<image overflow="visible" enable-background="new    " width="1920" height="1280" xlink:href="FC9BFCF9.jpeg"  transform="matrix(1.0041 0 0 0.8246 4.882813e-004 -180)">
					</image>
				</g>
			</g>
		</g>
	</g>
</g>
<path fill="none" stroke="#A7A9AC" stroke-width="28.4384" stroke-miterlimit="10" d="M2007.037-41.889
	c36.035,236.099-481.89,485.556-1032.704,485.556c-550.813,0-1133.667-251.031-1032.692-485.556"/>
<path fill="none" stroke="#D1D3D4" stroke-width="34.141" stroke-miterlimit="10" d="M2032.536-17.89
	c-28.499,260.987-499.151,478.416-1058.975,478.39C397.379,460.476-141.869,235.503-80.858-8.891"/>
<path fill="none" stroke="#FFFFFF" stroke-width="254" stroke-miterlimit="10" d="M2176.529,21.108
	C2070.034,388.59,1596.083,587.967,964.26,588.501C378.106,588.993-306.833,351.952-199.352,19.608"/>
<rect x="-14.501" y="633.501" fill="none" width="1984" height="437"/>
<path fill="none" stroke="#F15A29" stroke-width="7" stroke-miterlimit="10" d="M1365.07,178.608"/>
<path fill="none" stroke="#F15A29" stroke-width="7" stroke-miterlimit="10" d="M699.104,177.108"/>
<path fill="none" stroke="#F15A29" stroke-width="7" stroke-miterlimit="10" d="M1255,750"/>
</svg>
