<?xml version="1.0" encoding="utf-8"?>
<!-- Generator: Adobe Illustrator 16.0.0, SVG Export Plug-In . SVG Version: 6.00 Build 0)  -->
<!DOCTYPE svg PUBLIC "-//W3C//DTD SVG 1.1//EN" "http://www.w3.org/Graphics/SVG/1.1/DTD/svg11.dtd">
<svg version="1.1" id="Calque_1" xmlns="http://www.w3.org/2000/svg" xmlns:xlink="http://www.w3.org/1999/xlink" x="0px" y="0px"
	 width="334.5px" height="329.5px" viewBox="0 0 334.5 329.5" enable-background="new 0 0 334.5 329.5" xml:space="preserve">
<circle fill="#F15A29" stroke="#FFFFFF" stroke-miterlimit="10" cx="166.943" cy="166.412" r="162.319"/>
<path fill="none" stroke="#FFFFFF" stroke-width="6" stroke-miterlimit="10" d="M218.666,226.001c0,4.418-3.582,8-8,8h-92.5
	c-4.418,0-8-3.582-8-8V98.5c0-4.418,3.582-8,8-8h92.5c4.418,0,8,3.582,8,8V226.001z"/>
<path fill="#FFFFFF" stroke="#FFFFFF" stroke-width="6" stroke-miterlimit="10" d="M208.166,121.5c0,4.418-3.582,8-8,8h-69
	c-4.418,0-8-3.582-8-8v-10c0-4.418,3.582-8,8-8h69c4.418,0,8,3.582,8,8V121.5z"/>
<rect x="121.667" y="143.75" fill="none" stroke="#FFFFFF" stroke-width="4" stroke-miterlimit="10" width="15.5" height="17"/>
<rect x="145.167" y="143.5" fill="none" stroke="#FFFFFF" stroke-width="4" stroke-miterlimit="10" width="15.5" height="17"/>
<rect x="121.167" y="171.501" fill="none" stroke="#FFFFFF" stroke-width="4" stroke-miterlimit="10" width="15.5" height="17"/>
<rect x="144.667" y="171.501" fill="none" stroke="#FFFFFF" stroke-width="4" stroke-miterlimit="10" width="15.5" height="17"/>
<rect x="168.5" y="143.25" fill="none" stroke="#FFFFFF" stroke-width="4" stroke-miterlimit="10" width="15.5" height="17"/>
<rect x="193.5" y="143.5" fill="none" stroke="#FFFFFF" stroke-width="4" stroke-miterlimit="10" width="15.5" height="17"/>
<rect x="168" y="171.501" fill="none" stroke="#FFFFFF" stroke-width="4" stroke-miterlimit="10" width="15.5" height="17"/>
<rect x="191.75" y="171.251" fill="none" stroke="#FFFFFF" stroke-width="4" stroke-miterlimit="10" width="15.5" height="17"/>
<rect x="120.917" y="201.501" fill="none" stroke="#FFFFFF" stroke-width="4" stroke-miterlimit="10" width="15.5" height="17"/>
<rect x="144.417" y="201.501" fill="none" stroke="#FFFFFF" stroke-width="4" stroke-miterlimit="10" width="15.5" height="17"/>
<rect x="167.75" y="201.501" fill="none" stroke="#FFFFFF" stroke-width="4" stroke-miterlimit="10" width="15.5" height="17"/>
<rect x="191.5" y="201.251" fill="#FFFFFF" stroke="#FFFFFF" stroke-width="4" stroke-miterlimit="10" width="15.5" height="17"/>
</svg>
