<?xml version="1.0" encoding="utf-8"?>
<!-- Generator: Adobe Illustrator 16.0.0, SVG Export Plug-In . SVG Version: 6.00 Build 0)  -->
<!DOCTYPE svg PUBLIC "-//W3C//DTD SVG 1.1//EN" "http://www.w3.org/Graphics/SVG/1.1/DTD/svg11.dtd">
<svg version="1.1" id="Calque_1" xmlns="http://www.w3.org/2000/svg" xmlns:xlink="http://www.w3.org/1999/xlink" x="0px" y="0px"
	 width="333.333px" height="339.131px" viewBox="0 0 333.333 339.131" enable-background="new 0 0 333.333 339.131"
	 xml:space="preserve">
<circle fill="#F15A29" stroke="#FFFFFF" stroke-miterlimit="10" cx="165.566" cy="170.463" r="162.319"/>
<g>
	<g>
		<path fill="#FFFFFF" d="M91.956,171.554c46.336,0,92.673,0,139.01,0c0.367,0,0.735,0,1.103,0c7.461,0,7.461-11.569,0-11.569
			c-46.337,0-92.673,0-139.01,0c-0.367,0-0.735,0-1.103,0C84.496,159.984,84.496,171.554,91.956,171.554L91.956,171.554z"/>
	</g>
</g>
<rect x="138.956" y="78.113" fill="none" width="104.031" height="81.972"/>
<text transform="matrix(0.9988 0 0 1 138.9561 141.1255)" fill="#FFFFFF" font-family="'MyriadPro-Bold'" font-size="88.7509">$</text>
<rect x="136.843" y="181.031" fill="none" width="100.93" height="98.625"/>
<text transform="matrix(0.9988 0 0 1 136.8418 243.0801)" fill="#FFFFFF" font-family="'MyriadPro-Bold'" font-size="87.3988">€</text>
</svg>
