<?xml version="1.0" encoding="utf-8"?>
<!-- Generator: Adobe Illustrator 16.0.0, SVG Export Plug-In . SVG Version: 6.00 Build 0)  -->
<!DOCTYPE svg PUBLIC "-//W3C//DTD SVG 1.1//EN" "http://www.w3.org/Graphics/SVG/1.1/DTD/svg11.dtd">
<svg version="1.1" id="Calque_1" xmlns="http://www.w3.org/2000/svg" xmlns:xlink="http://www.w3.org/1999/xlink" x="0px" y="0px"
	 width="341.983px" height="334.483px" viewBox="790.099 377.599 341.983 334.483"
	 enable-background="new 790.099 377.599 341.983 334.483" xml:space="preserve">
<circle fill="#F15A29" stroke="#FFFFFF" stroke-miterlimit="10" cx="964.1" cy="549.763" r="162.319"/>
<path fill="none" stroke="#FFFFFF" stroke-width="4" stroke-miterlimit="10" d="M1011.851,554.039"/>
<path fill="none" stroke="#FFFFFF" stroke-width="4" stroke-miterlimit="10" d="M884.434,554.102"/>
<path fill="none" stroke="#FFFFFF" stroke-width="4" stroke-miterlimit="10" d="M958.767,530.78"/>
<path fill="none" stroke="#FFFFFF" stroke-width="4" stroke-miterlimit="10" d="M928.309,583.352"/>
<path fill="none" stroke="#FFFFFF" stroke-width="4" stroke-miterlimit="10" d="M910.432,568.936"/>
<path fill="none" stroke="#FFFFFF" stroke-width="4" stroke-miterlimit="10" d="M891.6,583.477"/>
<path fill="none" stroke="#FFFFFF" stroke-width="4" stroke-miterlimit="10" d="M881.017,556.561"/>
<path fill="none" stroke="#FFFFFF" stroke-width="4" stroke-miterlimit="10" d="M986.726,539.186"/>
<path fill="none" stroke="#FFFFFF" stroke-width="4" stroke-miterlimit="10" d="M1042.184,539.27"/>
<path fill="none" stroke="#FFFFFF" stroke-width="4" stroke-miterlimit="10" d="M993.184,514.602"/>
<path fill="none" stroke="#FFFFFF" stroke-width="4" stroke-miterlimit="10" d="M954.767,523.447"/>
<path fill="none" stroke="#FFFFFF" stroke-width="4" stroke-miterlimit="10" d="M1004.444,560.957"/>
<path fill="none" stroke="#FFFFFF" stroke-width="4" stroke-miterlimit="10" d="M1002.184,570.936"/>
<path fill="none" stroke="#FFFFFF" stroke-width="4" stroke-miterlimit="10" d="M948.184,561.434"/>
<path fill="none" stroke="#FFFFFF" stroke-width="4" stroke-miterlimit="10" d="M1001.976,538.146"/>
<path fill="none" stroke="#FFFFFF" stroke-width="4" stroke-miterlimit="10" d="M995.038,513.727"/>
<path fill="none" stroke="#FFFFFF" stroke-width="4" stroke-miterlimit="10" d="M931.017,528.852"/>
<path fill="none" stroke="#FFFFFF" stroke-width="4" stroke-miterlimit="10" d="M881.823,558.439"/>
<path fill="none" stroke="#FFFFFF" stroke-width="4" stroke-miterlimit="10" d="M896.486,534.366"/>
<path fill="none" stroke="#FFFFFF" stroke-width="4" stroke-miterlimit="10" d="M878.941,556.838"/>
<g>
	
		<line fill="#FFFFFF" stroke="#FFFFFF" stroke-width="6" stroke-miterlimit="10" x1="889.35" y1="582.178" x2="1039.684" y2="582.531"/>
	<path fill="#FFFFFF" stroke="#FFFFFF" stroke-width="6" stroke-miterlimit="10" d="M1040.517,536.259
		c16.086,0,22.406,12.977,22.406,25.334s-7.987,20.918-24.072,20.918"/>
	<path fill="#FFFFFF" stroke="#FFFFFF" stroke-width="6" stroke-miterlimit="10" d="M999.351,522.633
		c19.5-2.167,43.247,2.216,43.625,17.167"/>
	<path fill="#FFFFFF" stroke="#FFFFFF" stroke-width="6" stroke-miterlimit="10" d="M893.288,539.041
		c-1.8-17.119,23.179-37.339,52.014-40.37c28.838-3.032,55.561,9.72,57.361,26.838"/>
	<path fill="#FFFFFF" stroke="#FFFFFF" stroke-width="6" stroke-miterlimit="10" d="M890.767,582.26
		c-13.397-0.93-18.146-5.076-19.978-18.109c-1.832-13.041,9.665-25.426,25.873-27.705"/>
</g>
<path fill="none" stroke="#FFFFFF" stroke-width="6" stroke-miterlimit="10" d="M913.35,510.682
	c2.531-28.935,28.036-50.337,56.964-47.805c28.931,2.533,50.331,28.037,47.801,56.969"/>
<g>
	<g>
		<path fill="#FFFFFF" stroke="#FFFFFF" stroke-width="4.1106" stroke-miterlimit="10" d="M956.892,613.359
			c0,4.506-2.713,8.156-6.059,8.156c-3.349,0-6.062-3.65-6.062-8.156"/>
		<g>
			<line fill="#FFFFFF" x1="951.085" y1="594.557" x2="956.619" y2="613.287"/>
			<g>
				<path fill="#FFFFFF" d="M948.841,595.176c1.844,6.242,3.689,12.486,5.534,18.729c0.849,2.873,5.341,1.648,4.488-1.236
					c-1.845-6.242-3.689-12.486-5.534-18.729C952.48,591.066,947.989,592.291,948.841,595.176L948.841,595.176z"/>
			</g>
		</g>
		<g>
			<line fill="#FFFFFF" x1="950.909" y1="594.516" x2="945.062" y2="613.143"/>
			<g>
				<path fill="#FFFFFF" d="M948.666,593.898c-1.949,6.209-3.898,12.418-5.847,18.627c-0.901,2.871,3.592,4.09,4.487,1.236
					c1.949-6.209,3.898-12.418,5.848-18.627C954.055,592.264,949.561,591.045,948.666,593.898L948.666,593.898z"/>
			</g>
		</g>
	</g>
	<g>
		
			<ellipse fill="#FFFFFF" stroke="#FFFFFF" stroke-width="0.9308" stroke-miterlimit="10" cx="950.85" cy="610.354" rx="4.138" ry="10.164"/>
	</g>
</g>
<g>
	<g>
		<path fill="#FFFFFF" stroke="#FFFFFF" stroke-width="3.0574" stroke-miterlimit="10" d="M931.085,608.096
			c0,3.355-2.015,6.076-4.499,6.076c-2.486,0-4.501-2.721-4.501-6.076"/>
		<g>
			<line fill="#FFFFFF" x1="926.772" y1="594.086" x2="930.883" y2="608.039"/>
			<g>
				<path fill="#FFFFFF" d="M925.104,594.545c1.37,4.652,2.741,9.303,4.111,13.953c0.629,2.137,3.97,1.227,3.338-0.92
					c-1.37-4.65-2.741-9.301-4.111-13.953C927.812,591.488,924.471,592.398,925.104,594.545L925.104,594.545z"/>
			</g>
		</g>
		<g>
			<line fill="#FFFFFF" x1="926.643" y1="594.055" x2="922.302" y2="607.932"/>
			<g>
				<path fill="#FFFFFF" d="M924.974,593.596c-1.447,4.625-2.894,9.25-4.341,13.877c-0.668,2.137,2.674,3.043,3.338,0.92
					c1.447-4.627,2.894-9.252,4.341-13.877C928.98,592.379,925.638,591.473,924.974,593.596L924.974,593.596z"/>
			</g>
		</g>
	</g>
	<g>
		
			<ellipse fill="#FFFFFF" stroke="#FFFFFF" stroke-width="0.6923" stroke-miterlimit="10" cx="926.6" cy="605.855" rx="3.072" ry="7.57"/>
	</g>
</g>
<g>
	<g>
		<path fill="#FFFFFF" stroke="#FFFFFF" stroke-width="5.4466" stroke-miterlimit="10" d="M984.79,618.814
			c0,5.992-3.582,10.848-8,10.848c-4.42,0-8-4.855-8-10.848"/>
		<g>
			<line fill="#FFFFFF" x1="977.123" y1="593.807" x2="984.43" y2="618.717"/>
			<g>
				<path fill="#FFFFFF" d="M974.149,594.625c2.436,8.305,4.871,16.607,7.307,24.91c1.117,3.809,7.068,2.186,5.947-1.639
					c-2.436-8.303-4.871-16.607-7.307-24.91C978.979,589.18,973.028,590.801,974.149,594.625L974.149,594.625z"/>
			</g>
		</g>
		<g>
			<line fill="#FFFFFF" x1="976.892" y1="593.754" x2="969.174" y2="618.523"/>
			<g>
				<path fill="#FFFFFF" d="M973.919,592.934c-2.573,8.256-5.146,16.514-7.719,24.77c-1.186,3.807,4.768,5.424,5.947,1.639
					c2.572-8.256,5.145-16.512,7.717-24.77C981.051,590.766,975.098,589.15,973.919,592.934L973.919,592.934z"/>
			</g>
		</g>
	</g>
	<g>
		
			<ellipse fill="#FFFFFF" stroke="#FFFFFF" stroke-width="1.2333" stroke-miterlimit="10" cx="976.814" cy="614.814" rx="5.462" ry="13.52"/>
	</g>
</g>
<g>
	<g>
		<path fill="#FFFFFF" stroke="#FFFFFF" stroke-width="3.0574" stroke-miterlimit="10" d="M1007.919,608.094
			c0,3.355-2.014,6.078-4.498,6.078c-2.486,0-4.502-2.723-4.502-6.078"/>
		<g>
			<line fill="#FFFFFF" x1="1003.606" y1="594.084" x2="1007.718" y2="608.037"/>
			<g>
				<path fill="#FFFFFF" d="M1001.938,594.545c1.37,4.65,2.741,9.301,4.111,13.953c0.63,2.137,3.971,1.227,3.338-0.92
					c-1.37-4.652-2.741-9.303-4.111-13.953C1004.646,591.488,1001.305,592.398,1001.938,594.545L1001.938,594.545z"/>
			</g>
		</g>
		<g>
			<line fill="#FFFFFF" x1="1003.478" y1="594.055" x2="999.136" y2="607.932"/>
			<g>
				<path fill="#FFFFFF" d="M1001.809,593.594c-1.447,4.627-2.895,9.252-4.342,13.877c-0.668,2.137,2.674,3.043,3.338,0.92
					c1.447-4.625,2.895-9.25,4.342-13.877C1005.814,592.379,1002.473,591.471,1001.809,593.594L1001.809,593.594z"/>
			</g>
		</g>
	</g>
	<g>
		
			<ellipse fill="#FFFFFF" stroke="#FFFFFF" stroke-width="0.6923" stroke-miterlimit="10" cx="1003.435" cy="605.854" rx="3.072" ry="7.572"/>
	</g>
</g>
<rect x="898.6" y="533.602" fill="#FFFFFF" stroke="#FFFFFF" stroke-width="6" stroke-miterlimit="10" width="141.5" height="48.75"/>
<rect x="883.85" y="545.102" fill="#FFFFFF" stroke="#FFFFFF" stroke-width="6" stroke-miterlimit="10" width="22.25" height="35.5"/>
<rect x="940.1" y="525.352" fill="#FFFFFF" stroke="#FFFFFF" stroke-width="6" stroke-miterlimit="10" width="82" height="19.25"/>
</svg>
